<svg width="10" height="20" viewBox="0 0 20 25"  fill="none" xmlns="http://www.w3.org/2000/svg">
<path d="M3.83341 11.5V2.875H1.91675V11.5C1.91675 14.145 4.06341 16.2917 6.70841 16.2917H12.4584V14.375H6.70841C5.11758 14.375 3.83341 13.0908 3.83341 11.5ZM21.8788 16.5217C21.5147 15.8317 20.6426 15.5921 19.9334 15.9179L18.8888 16.3971L15.6209 9.70792C15.4632 9.38633 15.2194 9.11482 14.9165 8.92362C14.6136 8.73242 14.2636 8.62905 13.9055 8.625H10.5417V2.875H4.79175V10.5417C4.79175 12.1325 6.07591 13.4167 7.66675 13.4167H14.3751L17.643 20.125L21.208 18.4958C21.9459 18.1508 22.2622 17.25 21.8788 16.5217Z" fill="black"/>
</svg>
