<svg width="10" height="20" viewBox="0 0 20 25" fill="none" xmlns="http://www.w3.org/2000/svg">
<path d="M2.70146 22.8333V22.3333H2.20146C1.8101 22.3333 1.4813 22.1912 1.18945 21.8786L1.18873 21.8778C0.895357 21.5649 0.75 21.1973 0.75 20.7473V7.23387C0.75 6.80657 0.882579 6.4726 1.13916 6.19896L1.13995 6.19812C1.39446 5.92542 1.69157 5.79637 2.0625 5.79637H4.47917H4.97917V5.29637V2.06721C4.97917 1.94061 5.00246 1.83318 5.04854 1.73838V2.01812V5.29767V5.79767H5.54854H9.45146H9.95146V5.29767V2.01812V1.74167C9.99684 1.83622 10.0196 1.94268 10.0196 2.06721V5.29637V5.79637H10.5196H12.7973C13.1887 5.79637 13.5175 5.93847 13.8093 6.25111L13.8101 6.25188C14.1034 6.56483 14.2488 6.93241 14.2488 7.38242V20.7473C14.2488 21.1973 14.1034 21.5649 13.8101 21.8778L13.8093 21.8786C13.5175 22.1912 13.1887 22.3333 12.7973 22.3333H12.2973V22.8333V23.1304C12.2973 23.2683 12.2544 23.3793 12.1543 23.4863C12.0545 23.593 11.9655 23.625 11.8669 23.625C11.7684 23.625 11.6802 23.5931 11.5815 23.4871L11.5808 23.4863C11.4806 23.3793 11.4377 23.2683 11.4377 23.1304V22.8333V22.3333H10.9377H4.06108H3.56108V22.8333V23.1304C3.56108 23.2683 3.51819 23.3793 3.41803 23.4863C3.31823 23.593 3.22926 23.625 3.13067 23.625C3.03336 23.625 2.94467 23.5934 2.84451 23.4863C2.74435 23.3793 2.70146 23.2683 2.70146 23.1304V22.8333ZM5.54854 1.51812H5.21741C5.32976 1.41719 5.44907 1.375 5.59325 1.375H9.40433C9.55099 1.375 9.6705 1.41772 9.78169 1.51812H9.45146H5.54854ZM2.20146 22.0417H12.7985C13.144 22.0417 13.4575 21.9167 13.6978 21.6598C13.9357 21.4055 14.0417 21.0873 14.0417 20.7473V7.38242C14.0417 7.04245 13.9357 6.72422 13.6978 6.46992C13.4575 6.21304 13.144 6.08804 12.7985 6.08804H2.20146C1.85603 6.08804 1.54255 6.21304 1.30224 6.46992C1.06435 6.72422 0.958333 7.04245 0.958333 7.38242V20.7473C0.958333 21.0873 1.06435 21.4055 1.30224 21.6598C1.54255 21.9167 1.85603 22.0417 2.20146 22.0417ZM3.65412 9.37429V18.7554H3.58475V9.37429H3.65412ZM7.53408 9.37429V18.7554H7.46592V9.37429H7.53408ZM11.4153 9.37429V18.7554H11.3459V9.37429H11.4153Z" fill="#0BA32C" stroke="#0BA32C"/>
</svg>
