<svg width="10" height="20" viewBox="0 0 20 25"  fill="none" xmlns="http://www.w3.org/2000/svg">
<path d="M19.4687 15.5155L18.2603 14.2238V7.03183C18.2603 6.80019 18.1907 6.60989 18.0513 6.46092C17.9119 6.31194 17.7339 6.23746 17.5172 6.23746H10.7892L9.39479 4.74817V1.71663C9.39479 1.3851 9.50354 1.10351 9.72104 0.871875C9.93774 0.640236 10.2012 0.524417 10.5113 0.524417H14.1242C14.4343 0.524417 14.6978 0.640667 14.9145 0.873167C15.1312 1.10567 15.2395 1.38682 15.2395 1.71663V4.94579H17.5172C18.0537 4.94579 18.5129 5.15031 18.8947 5.55933C19.2773 5.96836 19.4687 6.45962 19.4687 7.03312V15.5155ZM16.6339 12.4853L15.5645 11.3421V8.17496H16.6339V12.4853ZM12.7528 8.43588L12.5087 8.17496H12.7528V8.43588ZM10.4642 4.94579H14.1701V1.66754H10.4642V4.94579ZM7.84813 23.7744C7.58471 23.7744 7.36439 23.6793 7.18717 23.489C7.00994 23.2987 6.92133 23.0627 6.92133 22.7811V22.4828C6.38403 22.4828 5.92446 22.2782 5.54262 21.8692C5.15999 21.461 4.96867 20.9702 4.96867 20.3967V6.98275C4.96867 6.62539 5.03633 6.29386 5.17167 5.98817C5.30781 5.68247 5.51443 5.44351 5.79154 5.27129L6.81137 6.36146H6.177V20.3967C6.177 20.6283 6.24668 20.8187 6.38604 20.9676C6.5254 21.1166 6.70343 21.1911 6.92012 21.1911H17.5172C17.7339 21.1911 17.9119 21.1166 18.0513 20.9676C18.1907 20.8187 18.2603 20.6283 18.2603 20.3967V18.6078L19.4687 19.8994V20.3967C19.4687 20.9702 19.2773 21.461 18.8947 21.8692C18.5129 22.2782 18.0537 22.4828 17.5172 22.4828V22.7798C17.5172 23.0623 17.4278 23.2987 17.249 23.489C17.0709 23.6793 16.8498 23.7744 16.5856 23.7744C16.3222 23.7744 16.1014 23.6793 15.9234 23.489C15.7462 23.2987 15.6576 23.0627 15.6576 22.7811V22.4828H8.77975V22.7798C8.77975 23.0623 8.69033 23.2987 8.5115 23.489C8.33347 23.6793 8.11235 23.7744 7.84813 23.7744ZM7.80342 18.9048V8.66579H8.87279V18.9074L7.80342 18.9048ZM11.6846 11.5708L12.7528 12.7203V18.9061H11.6846V11.5708ZM15.5645 15.726L16.6339 16.8692V18.9061H15.5645V15.726ZM23.2254 25.752L0 0.92225L0.861542 0L24.0893 24.8297L23.2254 25.752Z" fill="#D42525"/>
</svg>
