<svg width="20" height="20" viewBox="0 0 20 20" fill="none" xmlns="http://www.w3.org/2000/svg">
<path d="M9.99992 3.3335C10.884 3.3335 11.7318 3.68469 12.3569 4.30981C12.9821 4.93493 13.3333 5.78277 13.3333 6.66683C13.3333 7.55088 12.9821 8.39873 12.3569 9.02385C11.7318 9.64897 10.884 10.0002 9.99992 10.0002C9.11586 10.0002 8.26802 9.64897 7.6429 9.02385C7.01777 8.39873 6.66659 7.55088 6.66659 6.66683C6.66659 5.78277 7.01777 4.93493 7.6429 4.30981C8.26802 3.68469 9.11586 3.3335 9.99992 3.3335ZM9.99992 11.6668C13.6833 11.6668 16.6666 13.1585 16.6666 15.0002V16.6668H3.33325V15.0002C3.33325 13.1585 6.31659 11.6668 9.99992 11.6668Z" fill="black"/>
</svg>
