<svg width="370" height="32" viewBox="0 0 370 32" fill="none" xmlns="http://www.w3.org/2000/svg">
<path d="M349.842 0.107178L333.258 24.1031C331.074 27.2588 327.53 30.299 323.253 30.6261V31.3623H341.699C346.595 31.3623 350.166 28.1743 352.586 24.6629L369.615 0.108102H349.842V0.107178Z" fill="#ED1C24"/>
<path d="M349.842 0.107178L333.258 24.0994C331.074 27.2588 327.53 30.299 323.253 30.6251V31.3614H341.699C346.595 31.3614 350.166 28.1733 352.586 24.662L369.615 0.107178H349.842Z" fill="url(#paint0_linear_730_10884)"/>
<path d="M44.4023 31.3614V2.74373H52.7563V31.3614H44.4023ZM236.981 31.3614L216.917 14.368V31.3614H209.864V2.74373H215.855L235.653 19.4711V2.74373H242.706V31.3614H236.981ZM280.617 11.9772C276.841 10.1194 272.593 8.61452 266.958 8.61452C260.229 8.61452 255.212 12.0945 255.212 16.9334C255.212 21.8942 260.317 25.4019 266.897 25.4019C272.326 25.4019 276.635 24.0144 280.884 21.5663V28.6482C277.133 30.5087 272.148 31.8926 266.545 31.8926C255.095 31.8926 246.096 26.0505 246.096 16.9343C246.096 7.96416 255.273 2.21069 266.516 2.21069C271.824 2.21069 276.635 3.21395 280.617 4.83708V11.9772ZM99.2247 31.3614V2.74373H127.135V8.87781H107.571V15.9911H126.693V22.1289H107.571V31.3614H99.2247ZM285.663 31.3614V2.74373H314.636V8.87781H294.013V13.8377H314.309V19.9727H294.013V25.2236H314.547V31.3623H285.663V31.3614ZM156.137 20.624L167.676 31.3614H158.763C156.788 31.3614 155.489 30.7425 154.454 29.7392L146.609 22.1289C146.459 21.9792 146.224 21.8942 145.93 21.8942H140.589V31.3614H132.238V2.74373H150.328C159.706 2.74373 163.664 6.95998 163.664 11.6252C163.662 17.0507 158.823 19.6475 156.137 20.624V20.624ZM149.469 15.9015C152.774 15.9015 154.369 14.2183 154.369 12.3328C154.369 10.4437 152.952 8.87781 149.469 8.87781H140.588V15.9015H149.469ZM84.4734 20.624L96.008 31.3614H87.0988C85.12 31.3614 83.8221 30.7425 82.7902 29.7392L74.9406 22.1289C74.7956 21.9792 74.5563 21.8942 74.2616 21.8942H68.9248V31.3614H60.5708V2.74373H78.6598C88.042 2.74373 91.9959 6.95998 91.9959 11.6252C91.995 17.0507 87.1561 19.6475 84.4734 20.624ZM77.8053 15.9015C81.107 15.9015 82.7015 14.2183 82.7015 12.3328C82.7015 10.4437 81.2853 8.87781 77.8053 8.87781H68.9248V15.9015H77.8053ZM31.3369 31.3614L27.6749 25.0786H11.6857L8.35167 31.3614H0.384766L16.314 2.77237H23.5723L41.63 31.3614H31.3369ZM14.8701 19.1191H24.1922L19.3533 10.3827L14.8701 19.1191ZM198.066 31.3614L194.493 25.0786H178.917L175.7 31.3614H167.94L183.461 2.77237H190.51L208.066 31.3614H198.066ZM182.043 19.1191H191.131L186.41 10.3827L182.043 19.1191Z" fill="#002157"/>
<defs>
<linearGradient id="paint0_linear_730_10884" x1="346.434" y1="0.107085" x2="346.434" y2="31.3618" gradientUnits="userSpaceOnUse">
<stop offset="0.3352" stop-color="#FF1E27"/>
<stop offset="0.6915" stop-color="#E81B23"/>
<stop offset="0.7841" stop-color="#A61319"/>
<stop offset="0.8719" stop-color="#9D1218"/>
<stop offset="0.9551" stop-color="#931116"/>
<stop offset="1" stop-color="#800F14"/>
</linearGradient>
</defs>
</svg>
