<svg width="370" height="86" viewBox="0 0 370 86" fill="none" xmlns="http://www.w3.org/2000/svg">
<path d="M57.8965 15.8382V1.06097H72.6737V15.8382H57.8965ZM57.8965 83.9332V21.6295H72.6737V83.9332H57.8965ZM93.6416 83.9332H78.8644V21.6295H93.2423V33.2121C97.8336 26.4215 104.424 20.4315 113.41 20.4315C115.009 20.4315 116.006 20.6322 116.805 20.8309V34.8095C115.607 34.6088 113.41 34.6088 112.412 34.6088C105.622 34.6088 93.441 41.0001 93.441 53.3814V83.9332H93.6416ZM120.999 83.9332V1.06097H147.557C154.547 1.06097 178.31 1.06097 178.31 21.2302C178.31 35.2088 167.528 38.8028 161.935 40.7994C168.327 42.3968 180.307 45.7921 180.307 61.1693C180.307 73.7493 170.921 83.9332 149.554 83.9332H120.999ZM136.575 34.8095H147.557C161.737 34.8095 162.935 26.4215 162.935 23.6262C162.935 13.2436 152.151 13.2436 148.956 13.2436H136.575V34.8095ZM136.575 71.7526H146.359C156.744 71.7526 164.133 68.3573 164.133 59.3713C164.133 53.58 160.938 46.7914 147.359 46.7914H136.575V71.7526ZM222.242 83.9332L220.645 77.3432C217.051 80.5379 211.059 85.3319 201.874 85.3319C190.691 85.3319 182.705 78.1419 182.705 68.1586C182.705 61.7673 185.1 54.18 198.68 49.386L216.451 43.3961C219.048 42.5974 219.248 42.3967 219.248 40.6008V38.0041C219.248 32.8128 214.454 31.2155 208.663 31.2155C198.878 31.2155 189.892 37.2054 186.298 39.6014V26.6222C190.292 24.4248 197.881 20.0322 210.86 20.0322C230.231 20.0322 234.026 29.8168 234.026 41.5981V83.7345L222.242 83.9332ZM206.068 57.174C199.878 59.3713 197.68 62.3673 197.68 66.76C197.68 72.9506 203.072 74.3493 205.669 74.3493C208.065 74.3493 213.256 73.5506 219.248 67.36V51.9827C218.448 52.5827 218.048 52.7814 215.454 53.7807L206.068 57.174ZM39.7239 83.9332L38.1266 77.3432C34.5326 80.5379 28.7413 85.3319 19.356 85.3319C8.17273 85.3319 0.384766 78.1419 0.384766 68.1586C0.384766 61.7673 2.58209 54.18 16.36 49.386L34.3319 43.3961C36.9286 42.5974 37.1272 42.3967 37.1272 40.6008V38.0041C37.1272 32.8128 32.3353 31.2155 26.544 31.2155C16.7593 31.2155 7.7734 37.2054 4.17941 39.6014V26.6222C8.17273 24.4248 15.762 20.0322 28.7413 20.0322C48.1119 20.0322 51.9045 29.8168 51.9045 41.5981V83.7345L39.7239 83.9332ZM23.7486 57.174C17.558 59.3713 15.3607 62.3673 15.3607 66.76C15.3607 72.9506 20.7527 74.3493 23.3493 74.3493C25.7453 74.3493 30.9386 73.5506 36.9286 67.36V51.9827C36.1299 52.5827 35.7306 52.7814 33.1339 53.7807L23.7486 57.174ZM240.214 83.9332V1.06097H254.991V83.9332H240.214ZM267.573 32.8128H258.587V21.4309H267.573V0.862305H282.351V21.4309H293.532V32.8128H282.351V64.364C282.351 68.9573 282.949 73.1493 289.739 73.1493C291.535 73.1493 292.934 72.9506 294.132 72.7499V83.9332C292.135 84.1339 290.139 84.3325 287.143 84.3325C270.567 84.3325 267.573 76.1452 267.573 65.1626V32.8128ZM299.323 15.8382V0.862305H314.101V15.8382H299.323ZM299.323 83.9332V21.6295H314.101V83.9332H299.323ZM368.217 38.4034C365.223 35.8088 360.429 32.0141 352.043 32.0141C339.262 32.0141 334.071 42.5974 334.071 52.7814C334.071 57.174 335.269 73.5506 351.644 73.5506C360.23 73.5506 365.622 69.756 369.616 66.9606V80.1386C366.62 81.7379 359.831 85.1312 349.248 85.1312C328.079 85.1312 319.093 69.1559 319.093 52.5827C319.093 35.4075 328.878 20.0322 349.846 20.0322C360.03 20.0322 365.622 23.2269 368.217 24.6255V38.4034Z" fill="#152649"/>
</svg>
