<svg width="370" height="86" viewBox="0 0 370 86" fill="none" xmlns="http://www.w3.org/2000/svg">
<path d="M94.8993 0.336914C85.8808 0.336914 79.6072 2.66188 71.5174 11.4748L0.384766 85.6625H27.4715L97.6285 12.6028L87.3604 85.6625H108.162L120.132 0.336914M224.986 74.173C223.926 73.3722 223.386 72.1714 223.386 70.5634C223.386 66.767 225.7 63.9357 230.166 63.1686C231.082 63.0132 233.139 62.9205 234.269 62.9205H240.248L238.501 75.3919H229.744C227.598 75.3919 226.074 74.9915 224.986 74.173ZM220.599 34.3077L214.173 44.7882H236.72C241.061 44.7882 242.18 46.1137 242.18 48.5709C242.18 49.3053 242.067 50.2629 241.91 51.2762C241.848 51.5281 241.798 52.0019 241.704 52.648H232.424C222.815 52.648 216.626 53.8688 211.728 58.8521C208.954 61.6796 206.875 66.5107 206.875 72.6515C206.875 77.4117 208.897 81.0815 212.417 83.2009C214.759 84.6141 219.066 85.6625 225.324 85.6625H255.31L259.522 55.7074C259.898 53.0108 260.31 50.3005 260.31 46.6883C260.31 42.4658 258.354 38.4024 253.134 36.1476C250.223 34.8943 246.283 34.3077 241.133 34.3077H220.599ZM334.296 74.173C333.232 73.3728 332.697 72.1714 332.697 70.5634C332.697 66.767 335.011 63.9357 339.477 63.1686C340.391 63.0132 342.45 62.9205 343.578 62.9205H349.555L347.812 75.3926H339.054C336.902 75.3926 335.385 74.9915 334.296 74.1737M325.689 34.3077L324.218 44.7882H346.031C350.367 44.7882 351.488 46.1137 351.488 48.5709C351.488 49.3053 351.376 50.2629 351.219 51.2762C351.156 51.5281 351.106 52.0019 351.012 52.648H341.733C332.121 52.648 325.932 53.8688 321.037 58.8527C318.261 61.6796 316.183 66.5107 316.183 72.6521C316.183 77.4117 318.207 81.0815 321.72 83.2009C324.065 84.6141 328.372 85.6631 334.628 85.6631H364.618L368.826 55.7074C369.208 53.0108 369.616 50.3011 369.616 46.6889C369.616 42.4658 367.662 38.4024 362.438 36.1483C359.531 34.8943 355.591 34.3077 350.441 34.3077H325.689ZM151.043 34.3058L143.823 85.6631H162.059L169.275 34.3058H151.043ZM297.689 34.3058L290.471 85.6631H308.71L315.925 34.3058H297.689ZM125.866 21.7304L116.88 85.6631H135.114L144.1 21.7297L125.866 21.7304ZM152.81 21.7304L151.57 30.5295H169.808L171.045 21.7304H152.81ZM179.625 21.7304L172.971 69.154C172.601 71.7998 172.382 73.8503 172.382 75.1532C172.382 77.089 172.532 78.0108 172.84 79.1702C174.056 83.8533 177.669 85.6625 183.174 85.6625H200.663L202.24 75.182H195.029C192.003 75.182 190.901 74.2157 190.901 72.2291C190.901 71.6056 190.97 70.7602 191.127 69.6829L194.624 44.7882H207.02L213.442 34.3077H196.095L197.863 21.7304H179.625ZM272.617 21.7304L263.63 85.6631H281.868L290.856 21.7297L272.617 21.7304ZM299.457 21.7304L298.218 30.5295H316.456L317.695 21.7304" fill="#00663F"/>
</svg>
