<svg width="370" height="56" viewBox="0 0 370 56" fill="none" xmlns="http://www.w3.org/2000/svg">
<path d="M12.4095 51.3856C12.4095 53.8397 9.72407 55.8165 6.38967 55.8165C3.06646 55.8165 0.384766 53.8397 0.384766 51.3856C0.384766 48.9426 3.07019 46.9434 6.39713 46.9434C9.72407 46.936 12.4095 48.9351 12.4095 51.3856ZM16.6092 40.8005C16.6092 42.8556 14.2595 44.5116 11.3428 44.5303C8.41866 44.5116 6.06145 42.8556 6.06145 40.8005C6.06145 38.7454 8.41866 37.1155 11.3428 37.1155C14.2595 37.1043 16.6092 38.7454 16.6092 40.8005ZM20.0592 31.9685C20.0592 33.6133 18.0526 34.9523 15.5723 34.9597C13.0846 34.9597 11.0668 33.6208 11.0668 31.9685C11.0668 30.3274 13.0883 28.9847 15.5723 28.9847C18.0526 28.9847 20.0592 30.3348 20.0592 31.9685ZM29.2381 7.85934C29.2307 8.50831 28.1901 9.03794 26.8959 9.03794C25.6016 9.03794 24.5461 8.50831 24.5461 7.85934C24.5461 7.19917 25.6016 6.68073 26.8959 6.68073C28.1901 6.68073 29.2307 7.19544 29.2381 7.85934ZM31.9497 1.03762C31.9497 1.50756 31.1627 1.88054 30.1892 1.88054C29.2083 1.88054 28.4288 1.50756 28.4213 1.03762C28.4213 0.575126 29.2083 0.183502 30.1892 0.183502C31.1627 0.183502 31.9497 0.575126 31.9497 1.03762ZM30.6704 4.27131C30.6704 4.81959 29.7678 5.24851 28.6302 5.25597C27.515 5.25597 26.6049 4.81959 26.6049 4.27131C26.6049 3.73423 27.515 3.29785 28.6302 3.29785C29.764 3.29785 30.6704 3.73423 30.6704 4.27131ZM22.9722 24.2106C22.9722 25.5421 21.2602 26.6163 19.1454 26.6163C17.0456 26.6163 15.3299 25.5421 15.3299 24.2106C15.3299 22.8865 17.0418 21.8012 19.1454 21.8012C21.2602 21.8049 22.9722 22.8865 22.9722 24.2106ZM25.4972 17.7469C25.4972 18.7987 24.0389 19.6677 22.2225 19.6677C20.421 19.6677 18.9627 18.7987 18.9627 17.7469C18.9627 16.6727 20.421 15.8074 22.2225 15.8074C24.0389 15.8074 25.4972 16.6727 25.4972 17.7469ZM26.4371 50.6471C26.4371 52.8588 23.9941 54.6305 20.9805 54.6305C17.9668 54.6305 15.5164 52.8514 15.5164 50.6471C15.5164 48.4428 17.9668 46.6488 20.973 46.6488C23.9941 46.6488 26.4371 48.4391 26.4371 50.6471ZM38.4432 47.3351C38.4432 49.2783 36.2389 50.8448 33.5199 50.8448C30.8084 50.8448 28.6041 49.2783 28.6041 47.3351C28.6041 45.3919 30.8084 43.803 33.5199 43.803C36.2352 43.7992 38.4432 45.3881 38.4432 47.3351ZM44.5712 40.5655C44.5712 42.0873 42.7697 43.333 40.5318 43.333C38.3201 43.333 36.5186 42.0873 36.5186 40.5655C36.5186 39.0177 38.3201 37.772 40.5318 37.772C42.7622 37.772 44.5712 39.0177 44.5712 40.5655ZM38.708 28.4961C38.708 29.518 37.3914 30.3348 35.7839 30.3348C34.154 30.3348 32.8374 29.518 32.8374 28.4961C32.8374 27.4816 34.154 26.6424 35.7839 26.6424C37.3951 26.6424 38.708 27.4778 38.708 28.4961ZM27.6567 12.3425C27.6567 13.1929 26.4184 13.8866 24.8818 13.8866C23.3563 13.8866 22.1143 13.1892 22.1143 12.3425C22.1143 11.4958 23.3563 10.8096 24.8818 10.8096C26.4147 10.8096 27.6567 11.4996 27.6567 12.3425ZM43.497 33.5424C43.497 34.7882 41.9715 35.7915 40.0731 35.7915C38.1896 35.7915 36.6604 34.7807 36.6604 33.5424C36.6604 32.3191 38.1896 31.3008 40.0843 31.3008C41.9678 31.3083 43.497 32.3191 43.497 33.5424Z" fill="#EE452A"/>
<path d="M62.627 50.4572V17.6279H67.8635V29.7534C69.5419 29.1641 71.1383 28.8694 72.6376 28.8694C75.9123 28.8694 78.4411 29.9548 80.2426 32.1329C81.8016 34.0239 82.5886 36.5042 82.5886 39.5402C82.5886 43.5236 81.2608 46.5261 78.5978 48.5028C76.289 50.2595 73.0777 51.1249 68.975 51.1249C67.2257 51.1249 65.1035 50.9123 62.627 50.4572ZM67.8635 33.7703V46.7498C68.6095 46.8655 69.2883 46.9363 69.8888 46.9363C74.7785 46.9363 77.2252 44.5791 77.2252 39.8796C77.2252 37.5933 76.6135 35.8664 75.4163 34.7102C74.3533 33.6883 72.9435 33.1661 71.1383 33.1661C70.1088 33.1735 69.0197 33.3675 67.8635 33.7703ZM87.9706 50.8451V30.7716C91.0178 29.5296 94.0949 28.9067 97.2167 28.9067C98.7086 28.9067 100.118 29.1081 101.428 29.5221V33.9419C100.316 33.5316 99.0853 33.3414 97.7575 33.3414C96.2171 33.3414 94.7103 33.6137 93.2184 34.1731V50.8563M104.9 29.2573H110.148V42.1436C110.148 43.9451 110.532 45.1722 111.278 45.8025C111.931 46.3731 113.053 46.6566 114.62 46.6566C115.675 46.6566 116.839 46.5111 118.126 46.2575V29.2573H123.385V50.0954C119.871 50.7817 116.809 51.1211 114.172 51.1211C110.849 51.1211 108.432 50.4498 106.925 49.122C106.138 48.3574 105.605 47.4399 105.292 46.3284C105.031 45.3363 104.9 44.0271 104.9 42.3599M129.14 50.0992V45.3176C131.202 46.6118 133.153 47.2608 134.988 47.2608C137.323 47.2608 138.494 46.5298 138.494 45.064C138.494 44.0644 137.8 43.27 136.431 42.6322L134.309 41.6252C132.351 40.7188 130.993 39.7155 130.188 38.6376C129.49 37.6977 129.14 36.5639 129.14 35.2771C129.14 33.181 129.975 31.5623 131.661 30.3911C133.134 29.3804 135.021 28.8657 137.353 28.8657C139.27 28.8657 141.138 29.261 142.914 30.0517V34.5685C141.146 33.4794 139.415 32.9274 137.722 32.9274C135.387 32.9274 134.227 33.6248 134.227 35.016C134.227 35.5718 134.462 36.0529 134.939 36.4222C135.38 36.7616 136.383 37.2725 137.931 38.0222C140.083 39.115 141.534 40.0922 142.261 40.9128C143.193 41.9944 143.671 43.2961 143.671 44.8477C143.671 47.0259 142.802 48.708 141.097 49.8903C139.605 50.9309 137.644 51.4531 135.193 51.4531C133.097 51.4419 131.075 50.9906 129.14 50.0992ZM147.867 50.0992V45.3176C149.948 46.6118 151.902 47.2608 153.73 47.2608C156.065 47.2608 157.236 46.5298 157.236 45.064C157.236 44.0644 156.538 43.27 155.155 42.6322L153.051 41.6252C151.086 40.7188 149.724 39.7155 148.93 38.6376C148.225 37.6977 147.867 36.5639 147.867 35.2771C147.867 33.181 148.717 31.5623 150.399 30.3911C151.858 29.3804 153.741 28.8657 156.091 28.8657C158.015 28.8657 159.858 29.261 161.659 30.0517V34.5685C159.88 33.4794 158.161 32.9274 156.453 32.9274C154.125 32.9274 152.965 33.6248 152.965 35.016C152.965 35.5718 153.2 36.0529 153.678 36.4222C154.125 36.7616 155.11 37.2725 156.673 38.0222C158.825 39.115 160.268 40.0922 160.995 40.9128C161.939 41.9944 162.398 43.2961 162.398 44.8477C162.398 47.0259 161.536 48.708 159.828 49.8903C158.344 50.9309 156.371 51.4531 153.931 51.4531C151.839 51.4419 149.814 50.9906 147.867 50.0992ZM186.276 41.0471H171.469C171.689 45.0379 173.923 47.0557 178.152 47.0557C180.741 47.0557 183.091 46.306 185.179 44.7656V49.1705C182.755 50.6363 180.144 51.3636 177.35 51.3636C173.673 51.3636 170.857 50.2782 168.914 48.059C167.228 46.1606 166.385 43.5721 166.385 40.3496C166.385 36.6571 167.463 33.7367 169.645 31.5772C171.551 29.7123 173.975 28.7724 176.903 28.7724C178.965 28.7724 180.759 29.2909 182.277 30.2793C183.613 31.152 184.601 32.3232 185.25 33.7815C185.944 35.3331 186.272 37.7238 186.272 40.9575M171.808 37.2912H181.207C180.972 34.2776 179.514 32.7707 176.825 32.7707C175.4 32.7707 174.251 33.2295 173.352 34.1246C172.55 34.9153 172.043 35.9597 171.808 37.2912ZM191.676 17.6279H196.932V50.8526H191.676V17.6279ZM202.739 50.0992V45.3176C204.801 46.6118 206.76 47.2608 208.598 47.2608C210.922 47.2608 212.093 46.5298 212.093 45.064C212.093 44.0644 211.403 43.27 210.019 42.6322L207.912 41.6252C205.958 40.7188 204.589 39.7155 203.794 38.6376C203.082 37.6977 202.739 36.5639 202.739 35.2771C202.739 33.181 203.578 31.5623 205.275 30.3911C206.737 29.3804 208.621 28.8657 210.956 28.8657C212.88 28.8657 214.73 29.261 216.505 30.0517V34.5685C214.749 33.4794 213.011 32.9274 211.332 32.9274C208.979 32.9274 207.834 33.6248 207.834 35.016C207.834 35.5718 208.065 36.0529 208.542 36.4222C208.964 36.7616 209.978 37.2725 211.53 38.0222C213.686 39.115 215.133 40.0922 215.864 40.9128C216.796 41.9944 217.277 43.2961 217.277 44.8477C217.277 47.0259 216.416 48.708 214.696 49.8903C213.201 50.9309 211.235 51.4531 208.8 51.4531C206.692 51.4419 204.69 50.9906 202.739 50.0992ZM231.562 35.5942V31.0774C234.304 29.6004 237.112 28.8694 239.947 28.8694C243.05 28.8694 245.068 29.7795 246 31.6033C246.467 32.5246 246.713 34.2253 246.713 36.7317V50.4162C243.002 50.957 239.98 51.2106 237.649 51.2106C234.927 51.2106 232.995 50.6661 231.82 49.5434C230.798 48.5513 230.302 47.0781 230.302 45.1162C230.302 42.1697 231.533 40.0997 234.009 38.9024C235.643 38.1005 238.127 37.5299 241.443 37.1569L241.879 37.1196V36.3476C241.879 35.0645 241.636 34.2104 241.107 33.7703C240.641 33.3712 239.876 33.1735 238.78 33.1735C236.512 33.1735 234.091 33.9829 231.562 35.5942ZM241.98 46.8207V41.0732C239.283 41.297 237.441 41.696 236.426 42.3152C235.55 42.856 235.124 43.6467 235.124 44.7246C235.124 46.3582 236.064 47.1639 237.989 47.1639C239.056 47.175 240.38 47.0557 241.98 46.8207ZM253.128 19.5674H258.529V25.1844H253.128V19.5674ZM253.217 29.3058H258.465V50.8526H253.217V29.3058ZM265.231 50.8451V30.7716C268.278 29.5296 271.355 28.9067 274.496 28.9067C275.973 28.9067 277.375 29.1081 278.695 29.5221V33.9419C277.573 33.5316 276.346 33.3414 275.025 33.3414C273.47 33.3414 271.967 33.6137 270.486 34.1731V50.8563M282.914 17.6279H288.173V50.8526H282.914V17.6279ZM294.901 19.5674H300.309V25.1844H294.901V19.5674ZM294.983 29.3058H300.235V50.8526H294.983V29.3058ZM307.015 50.8451V30.3539C310.406 29.3767 313.658 28.903 316.795 28.903C320.185 28.903 322.576 29.6265 323.963 31.1035C325.116 32.3455 325.698 34.3074 325.698 37.004V50.8451H320.439V37.3621C320.439 35.7284 320.073 34.6244 319.331 34.0053C318.663 33.4607 317.597 33.1735 316.142 33.1735C314.904 33.1735 313.606 33.3787 312.274 33.7703V50.8451M350.762 41.0471H335.951C336.171 45.0379 338.394 47.0557 342.612 47.0557C345.223 47.0557 347.565 46.306 349.654 44.7656V49.1705C347.237 50.6363 344.611 51.3636 341.833 51.3636C338.159 51.3636 335.339 50.2782 333.388 48.059C331.718 46.1606 330.856 43.5721 330.856 40.3496C330.856 36.6571 331.949 33.7367 334.112 31.5772C336.018 29.7123 338.446 28.7724 341.366 28.7724C343.436 28.7724 345.227 29.2909 346.748 30.2793C348.087 31.152 349.068 32.3232 349.736 33.7815C350.407 35.3331 350.747 37.7238 350.747 40.9575M336.298 37.2912H345.697C345.462 34.2776 344.003 32.7707 341.303 32.7707C339.889 32.7707 338.729 33.2295 337.834 34.1246C337.032 34.9153 336.533 35.9597 336.298 37.2912ZM355.111 50.0992V45.3176C357.181 46.6118 359.131 47.2608 360.966 47.2608C363.297 47.2608 364.465 46.5298 364.465 45.064C364.465 44.0644 363.764 43.27 362.384 42.6322L360.272 41.6252C358.329 40.7188 356.949 39.7155 356.151 38.6376C355.457 37.6977 355.111 36.5639 355.111 35.2734C355.111 33.1773 355.939 31.5586 357.632 30.3874C359.098 29.3767 360.981 28.8619 363.32 28.8619C365.241 28.8619 367.102 29.2573 368.87 30.048V34.5647C367.117 33.4757 365.371 32.9237 363.667 32.9237C361.358 32.9237 360.19 33.6211 360.19 35.0123C360.19 35.568 360.425 36.0492 360.892 36.4184C361.332 36.7578 362.342 37.2688 363.89 38.0185C366.046 39.1113 367.497 40.0885 368.224 40.9091C369.157 41.9907 369.616 43.2924 369.616 44.8439C369.616 47.0221 368.761 48.7042 367.057 49.8866C365.554 50.9272 363.596 51.4493 361.156 51.4493C359.072 51.4419 357.043 50.9906 355.111 50.0992Z" fill="#011F65"/>
</svg>
