<svg width="370" height="42" viewBox="0 0 370 42" fill="none" xmlns="http://www.w3.org/2000/svg">
<path d="M33.588 2.27703C35.4416 1.29672 37.524 0.787176 39.6194 0.835176C48.9832 0.831484 58.3469 0.866561 67.7106 0.824099C66.4885 3.53611 65.1906 7.10659 61.718 7.41859C53.017 7.66044 44.2939 7.39644 35.5837 7.54044C33.4311 7.50352 31.2858 8.63706 30.3738 10.6383C28.4981 14.314 26.8144 18.0876 24.972 21.7854C32.436 21.7799 39.9037 21.791 47.3696 21.7744C46.7161 23.0445 46.2268 24.455 45.2004 25.4851C43.9487 26.471 42.2447 26.2882 40.7585 26.3325C34.9782 26.2568 29.1904 26.3953 23.412 26.2513C21.3276 30.1578 19.5682 34.223 17.5541 38.1646C16.6365 40.0237 14.6298 41.2255 12.5528 41.1535C8.49865 41.1535 4.43525 41.3012 0.384766 41.0206V40.8028C0.45492 40.8194 0.598921 40.86 0.672767 40.8766C4.18048 33.3 7.83773 25.8027 11.4617 18.2796C13.2433 14.5116 16.2895 11.3989 19.9596 9.42353C24.4753 6.99028 29.0446 4.66043 33.588 2.27703ZM72.3777 4.12319C73.3174 2.13303 75.4701 0.892407 77.6448 0.85733C81.6252 0.794561 85.6055 0.88133 89.5877 0.816715C83.728 13.1417 77.7279 25.4058 71.8257 37.7123C71.0005 39.7264 68.9771 41.1738 66.7783 41.1425C62.6891 41.1997 58.598 41.1554 54.5106 41.1609C60.4589 28.8156 66.4202 16.4722 72.3777 4.12319ZM105.551 1.05118C106.855 0.403174 108.367 1.13795 109.076 2.30288C114.908 10.3226 120.775 18.3183 126.664 26.2919C127.312 27.1744 127.8 28.1492 128.28 29.1295C132.011 21.7485 135.48 14.2328 139.091 6.79459C140.019 4.95397 140.701 2.73857 142.652 1.70657C145.349 0.264712 148.532 1.01425 151.456 0.853638C144.95 14.2919 138.457 27.7338 131.959 41.1775C128.664 41.1314 125.364 41.2458 122.075 41.1277C120.027 41.0631 118.447 39.5474 117.286 38.0114C112.735 31.9541 108.177 25.9005 103.624 19.8562C102.644 18.6137 101.691 17.3528 101.015 15.9165C97.312 23.2901 93.9022 30.8095 90.2449 38.2071C89.4031 39.8335 87.712 41.028 85.8658 41.1277C83.7132 41.2514 81.5606 41.1461 79.4116 41.172C83.9901 31.3523 88.6812 21.5731 93.3594 11.7995C94.8732 8.57983 97.1348 5.62597 100.247 3.82596C101.972 2.82165 103.722 1.85241 105.551 1.05118ZM169.05 1.05118C170.328 0.416097 171.816 1.10287 172.538 2.24011C178.383 10.2654 184.257 18.2796 190.157 26.2698C190.818 27.1578 191.306 28.1565 191.797 29.1424C195.947 20.8753 199.829 12.466 203.895 4.15089C204.746 2.33611 206.609 1.1361 208.578 0.927485C210.692 0.746561 212.815 0.886869 214.931 0.829638C208.508 14.3122 201.951 27.7301 195.452 41.1831C192.142 41.1277 188.824 41.2514 185.511 41.1277C183.317 41.0132 181.713 39.2926 180.502 37.6347C175.338 30.6766 170.027 23.8291 164.924 16.8248C164.758 16.6919 164.424 16.4149 164.258 16.2839C160.933 23.3879 157.471 30.4236 154.118 37.5147C153.358 39.2557 151.837 40.8028 149.885 41.0631C147.585 41.3049 145.266 41.1074 142.962 41.1941C146.693 32.9252 150.698 24.7651 154.587 16.5608C156.249 13.2912 157.519 9.73553 159.984 6.94782C162.4 4.18227 165.808 2.61857 169.05 1.05118ZM238.425 2.33611C240.257 1.34287 242.319 0.807484 244.411 0.838869C248.838 0.838869 253.27 0.835176 257.707 0.838869C260.925 0.827792 264.093 2.01857 266.568 4.06965C269.4 6.25182 272.314 8.32875 275.118 10.5441C276.379 11.41 276.473 13.0992 275.755 14.3639C271.501 23.3122 267.117 32.2015 262.867 41.1554C259.193 41.1554 255.512 41.2052 251.836 41.1443C249.857 41.2809 248.225 38.9806 249.192 37.1898C250.769 33.503 252.718 29.9806 254.345 26.3141C245.651 26.2938 236.961 26.3085 228.268 26.3085C226.364 30.1615 224.544 34.0606 222.642 37.9154C221.786 39.7098 219.988 41.0945 217.959 41.1277C213.779 41.2385 209.599 41.1018 205.421 41.1905C209.049 33.5566 212.723 25.9467 216.386 18.3313C218.164 14.5762 221.158 11.4469 224.808 9.47522C229.337 7.07336 233.884 4.70843 238.425 2.33611ZM235.861 10.6494C233.991 14.3196 232.307 18.0857 230.455 21.7725C239.162 21.7965 247.861 21.778 256.568 21.778C258.316 18.1079 260.092 14.4506 261.883 10.7989C262.163 10.0254 262.841 9.18906 262.424 8.34721C261.742 7.35582 260.463 7.54413 259.435 7.49983C253.28 7.54598 247.124 7.46106 240.973 7.54044C238.819 7.48321 236.767 8.68875 235.861 10.6494ZM290.554 5.43212C291.366 3.17611 293.181 1.17487 295.682 0.929331C299.893 0.69856 304.123 0.934869 308.338 0.814869C302.655 13.0863 296.607 25.1971 290.795 37.4095C290.002 39.3738 288.2 41.0151 286.016 41.1277C281.786 41.2421 277.553 41.1461 273.318 41.172C279.067 29.255 284.825 17.3528 290.554 5.43212ZM327.165 5.08874C330.626 3.47888 333.881 0.899792 337.862 0.859177C342.495 0.827792 347.133 0.807484 351.765 0.870254C355.971 1.01425 359.559 3.43273 362.687 6.02843C364.965 7.98352 367.793 9.36445 369.616 11.7977V13.2912C368.548 16.0457 367.302 18.7393 365.923 21.346C364.371 24.1264 360.985 25.0088 358.042 25.3061C353.175 25.6919 348.292 25.2045 343.428 25.5793C343.564 25.7676 343.845 26.1424 343.982 26.3233C346.775 27.3572 350.831 26.375 352.52 29.4267C354.885 33.3572 357.25 37.2877 359.65 41.1997C354.898 41.1092 350.138 41.2348 345.381 41.1425C343.564 41.2145 341.862 40.2231 340.95 38.676C338.764 35.2606 336.811 31.7086 334.684 28.2618C333.872 26.9233 332.613 25.7288 330.992 25.5627C328.258 25.2913 325.505 25.5221 322.765 25.4353C320.757 29.4341 318.861 33.4827 316.88 37.4926C316.04 39.4532 314.21 41.1037 311.989 41.124C307.804 41.2606 303.624 41.1092 299.441 41.1905C303.348 33.0692 307.119 24.8704 311.197 16.8396C314.48 10.6605 321.414 8.29552 327.165 5.08874ZM329.543 10.3651C327.754 13.8377 326.144 17.4026 324.396 20.8937C331.394 20.8827 338.393 20.9159 345.39 20.8753C347.738 20.8808 350.548 20.3971 351.794 18.1448C353.068 15.7466 354.115 13.2303 355.35 10.8137C355.649 10.0272 356.342 9.15768 355.875 8.29737C355.153 7.39275 353.929 7.50721 352.906 7.49429C346.754 7.54044 340.605 7.45367 334.455 7.5349C332.467 7.54598 330.466 8.56137 329.543 10.3651Z" fill="#0B1560"/>
</svg>
