<svg width="368" height="214" viewBox="0 0 368 214" fill="none" xmlns="http://www.w3.org/2000/svg">
<path d="M177.207 0.333984H188.716C188.811 4.24365 188.8 8.14283 188.779 12.0525C192.626 12.042 196.483 12.063 200.33 12.0315C200.361 15.8678 200.361 19.7041 200.246 23.5404C196.431 23.5404 192.605 23.5614 188.79 23.5404C188.79 27.3138 188.779 31.0977 188.811 34.8816C185.016 35.1226 181.222 35.0702 177.427 35.0388C177.407 31.2025 177.407 27.3557 177.386 23.5089C173.528 23.5614 169.682 23.5404 165.835 23.5509C165.772 19.7251 165.782 15.8888 165.772 12.063C169.65 12.0525 173.528 12.042 177.396 12.063C177.312 8.15331 177.658 4.22268 177.207 0.333984V0.333984ZM110.565 32.7328C122.158 29.9447 134.882 39.5878 134.631 51.6522C135.522 62.1968 126.298 72.081 115.806 72.2801C106.404 73.0872 97.2008 66.1589 95.2198 56.9769C92.3163 46.4743 99.9051 34.7138 110.565 32.7328V32.7328ZM156.653 32.7119C168.235 29.9657 181.002 39.6298 180.677 51.6941C181.61 62.5427 171.736 72.5946 160.95 72.3116C151.433 72.7204 142.544 65.2469 141.046 55.8868C138.918 45.6043 146.349 34.63 156.653 32.7119ZM202.762 32.7328C213.998 30.06 226.272 39.0428 226.702 50.6669C227.603 58.5596 223.086 66.4943 216.073 70.0895C208.705 74.062 198.946 72.6575 192.94 66.8506C186.201 60.5407 184.796 49.4301 189.848 41.6842C192.689 37.1037 197.447 33.7495 202.762 32.7328V32.7328ZM248.944 32.7119C259.017 30.4478 269.939 37.3343 272.255 47.3967C274.278 55.1426 271.196 63.8529 264.666 68.5172C258.597 73.0453 249.887 73.6113 243.284 69.9113C236.072 66.1693 231.785 57.6687 233.033 49.6502C233.987 41.3802 240.737 34.1688 248.944 32.7119V32.7119ZM114.265 101.356C113.971 93.3483 114.108 85.3193 114.192 77.3113C160.279 77.4476 206.367 77.3428 252.455 77.3637C252.466 85.3403 252.466 93.3064 252.455 101.272C206.388 101.325 160.321 101.168 114.265 101.356ZM0.570312 121.659C12.205 121.659 23.8396 121.649 35.4847 121.67C35.5057 132.801 35.4638 143.943 35.4952 155.085C47.0355 144.038 58.3138 132.728 69.8541 121.68C81.5831 121.649 93.3121 121.649 105.041 121.68C91.5197 135.422 77.6315 148.807 64.215 162.643C81.1219 179.036 97.4524 196.037 114.506 212.252C114.653 182.065 114.527 151.867 114.569 121.67C126.466 121.649 138.362 121.649 150.259 121.67C150.259 144.572 150.238 167.475 150.259 190.377C169.262 190.325 188.255 190.44 207.248 190.314C207.51 198.081 207.29 205.859 207.374 213.625C161.191 213.625 114.999 213.667 68.8164 213.604C57.8945 202.546 46.8259 191.635 35.8516 180.629C35.6944 191.645 35.8726 202.651 35.7573 213.667C24.0283 213.583 12.2993 213.678 0.570313 213.615L0.570312 121.659ZM217.153 121.659C236.313 121.596 255.474 121.785 274.634 121.565C280.682 138.011 285.976 154.739 291.688 171.311C292.16 170.567 292.831 169.938 293.072 169.068C298.533 153.251 304.119 137.476 309.633 121.67C328.898 121.649 348.163 121.638 367.429 121.68V213.563C355.637 213.709 343.834 213.615 332.043 213.615C332.022 192.463 332.147 171.3 331.98 150.138C330.334 151.06 330.166 153.146 329.464 154.708C322.62 174.361 315.597 193.951 308.752 213.604C297.663 213.604 286.563 213.751 275.483 213.531C268.534 193.438 261.344 173.439 254.331 153.377C254.08 152.255 253.451 151.438 252.466 150.914C252.434 171.814 252.476 192.725 252.455 213.636C240.684 213.636 228.913 213.636 217.142 213.625C217.163 182.977 217.132 152.318 217.153 121.659V121.659Z" fill="#00A1E4"/>
</svg>
