<svg width="370" height="158" viewBox="0 0 370 158" fill="none" xmlns="http://www.w3.org/2000/svg">
<path fill-rule="evenodd" clip-rule="evenodd" d="M56.8841 118.143H99.4013C95.365 111.418 93.0452 103.544 93.0452 95.1311C93.0452 60.6 121.037 32.611 155.57 32.611L369.616 33.5986L358.568 72.1167H316.34L292.084 156.663H246.644L270.89 72.1167H228.227C232.263 78.8438 234.582 86.7152 234.582 95.1317C234.582 129.655 206.591 157.649 172.06 157.649L170.936 157.643L0.385873 156.664L35.6775 33.599H81.1271L56.8841 118.143ZM137.845 95.1328C137.845 80.7913 149.473 69.167 163.813 69.167C178.157 69.167 189.784 80.7918 189.784 95.1328C189.784 109.474 178.158 121.101 163.813 121.101C149.472 121.101 137.845 109.475 137.845 95.1328V95.1328ZM157.799 99.6007L172.272 70.5733C174.056 71.444 175.257 73.3462 175.257 75.4646C175.257 76.4688 174.989 77.4107 174.507 78.2132L162.05 98.9466L166.258 98.2971C166.479 98.2635 166.702 98.247 166.926 98.2477C169.277 98.2477 171.183 100.157 171.183 102.508H182.907L181.853 101.181H179.709L179.237 100.532H185.469C186.142 101.653 187.338 102.427 188.72 102.508L188.52 103.157H162.162L173.063 111.522C174.273 112.449 175.032 113.928 175.032 115.57C175.032 116.983 174.469 118.286 173.543 119.213L157.203 103.157H139.11L138.909 102.508L157.799 99.5995M58.3048 0.350056H61.7694L57.0015 16.979H53.5362L58.3048 0.350056ZM235.394 3.12048L236.191 0.350056H228.226C226.042 0.350056 223.78 1.39771 223.145 3.61117L222.391 6.24756C221.873 8.05654 222.907 9.70455 225.493 9.70455H229.377C229.931 9.70455 230.699 10.0138 230.262 11.5292L230.073 12.1973C229.721 13.4194 228.629 14.2088 227.628 14.2088H220.113L219.319 16.979H227.658C229.854 16.979 232.407 16.1214 233.245 13.2093L233.834 11.1602C234.668 8.25906 232.596 6.93246 230.601 6.93246H226.941C226.425 6.93246 225.699 6.80434 225.993 5.77404L226.27 4.80706C226.644 3.49597 227.354 3.12048 228.34 3.12048H235.394ZM176.461 0.347656H179.926L175.156 16.979H171.692L176.461 0.347656ZM134.403 0.347656H137.87L133.1 16.979H129.636L134.403 0.347656ZM162.608 0.347656H166.072L162.099 14.2088H169.715L168.921 16.979H157.837L162.608 0.347656ZM85.6887 0.350056L80.9249 16.979H84.2508L86.1399 10.3989H94.5907L92.7039 16.979H96.029L100.798 0.350056H97.4732L95.3853 7.62862H86.9324L89.0194 0.350056H85.6887ZM202.681 16.979L207.451 0.350056H219.237L218.443 3.12048H209.828L208.734 6.93246L215.889 6.93062L215.095 9.70252H207.941L206.649 14.2088H215.263L214.467 16.979H202.681ZM181.393 16.979L186.157 0.347656H190.499L193.984 12.8217C194.272 13.8464 194.272 14.2088 194.272 14.2088L198.249 0.347656H201.209L196.444 16.979H191.991L188.61 4.51058C188.367 3.60914 188.343 3.03814 188.343 3.03814L184.354 16.979H181.393ZM78.6179 3.12048L79.4157 0.350056H71.4499C69.2663 0.350056 67.0052 1.39771 66.37 3.61117L65.6151 6.24756C65.0956 8.05654 66.1328 9.70455 68.718 9.70455H72.6C73.1549 9.70455 73.924 10.0138 73.4867 11.5292L73.2961 12.1973C72.9446 13.4194 71.8543 14.2088 70.8519 14.2088H63.3382L62.5431 16.979H70.8837C73.0794 16.979 75.6309 16.1214 76.4699 13.2093L77.0586 11.1602C77.8931 8.25906 75.8207 6.93246 73.8239 6.93246H70.165C69.6485 6.93246 68.9226 6.80434 69.2168 5.77404L69.4956 4.80706C69.87 3.49597 70.5793 3.12048 71.5649 3.12048H78.6179ZM44.4505 0.347656H47.9141L43.9395 14.2088H51.5579L50.7637 16.979H39.6809L44.4505 0.347656ZM12.5195 3.12048C13.6079 3.12048 13.7874 4.05275 13.6146 4.65273L13.0633 6.57543C12.611 8.13796 11.1966 8.66391 10.4293 8.66391H6.21286L7.80308 3.12048H12.5195ZM5.15727 0.347656L0.384766 16.979H3.85005L5.53092 11.0882H10.7788C12.4792 11.0882 15.4673 10.2587 16.1865 7.74991L17.0555 4.71827C17.9804 1.49334 15.1839 0.347656 13.9553 0.347656H5.15727ZM143.793 0.350056H152.592C153.821 0.350056 156.611 1.49094 155.691 4.71642L155.156 6.58484C154.405 9.21035 151.2 9.46917 151.2 9.46917C153.751 10.522 153.839 11.1415 153.519 13.5147C153.201 15.8878 153.541 16.8502 153.685 16.979H150.541C150.541 16.979 149.897 16.0841 150.341 13.7576C150.87 10.9612 150.039 10.7566 149.266 10.7417H144.26L142.485 16.979H139.021L143.793 0.350056ZM151.155 3.12048C152.244 3.12048 152.421 4.05275 152.251 4.65273L151.7 6.57543C151.319 7.61939 150.041 7.96775 149.272 7.96775H145.057L146.44 3.12048H151.155ZM125.477 16.979L123.746 0.350056H119.934L108.503 16.979H112.184L114.375 13.5119L121.87 13.5147L122.015 16.979H125.477ZM121.766 11.0199L121.436 3.11771C121.42 2.74498 121.492 2.26094 121.492 2.26094L120.964 3.12048L115.951 11.0219L121.766 11.0199ZM24.7193 14.2062H29.4209C30.6718 14.2062 32.121 13.1942 32.6143 11.4762L34.3055 5.57614C34.7306 4.09964 33.4851 3.14208 32.7236 3.14392L27.9398 3.15315C26.6132 3.15592 25.1829 4.25859 24.8109 5.55436L23.202 11.1583C22.5985 13.2623 23.8094 14.2062 24.7193 14.2062V14.2062ZM28.2902 0.371655H32.9599C35.3986 0.371655 38.2528 2.5925 37.4473 5.40501L35.4357 12.4262C34.6555 15.147 31.6994 16.979 28.9498 16.979H25.2816C21.7807 16.979 19.1021 14.4582 20.0495 11.1583L21.8882 4.74633C22.6689 2.02741 25.5519 0.371655 28.2908 0.371655" fill="#1A3171"/>
</svg>
