<svg width="370" height="62" viewBox="0 0 370 62" fill="none" xmlns="http://www.w3.org/2000/svg">
<path fill-rule="evenodd" clip-rule="evenodd" d="M218.135 55.8741L220.361 49.5161C220.748 48.4276 221.791 47.8013 222.7 48.1178C223.362 48.3505 223.769 48.9707 223.794 49.7394C223.811 49.9169 223.839 50.1497 223.978 50.3662C225.962 53.8969 230.513 56.2553 235.989 55.8702C240.705 55.538 242.562 52.4818 242.304 48.8027C242.207 47.42 241.277 46.0184 240.935 45.5467C240.35 44.7875 230.455 32.8999 230.455 32.8999C228.249 29.9213 226.805 26.3131 226.527 22.3559C225.748 11.2342 233.999 1.61129 247.269 0.684104C255.613 0.0829147 262.173 2.28616 267.138 6.111L264.942 12.3679C264.561 13.4564 263.514 14.0833 262.61 13.7668C261.948 13.534 261.541 12.9139 261.514 12.148C261.498 11.9671 261.466 11.7349 261.33 11.5184C259.318 8.02342 255.525 5.74928 250.082 6.13333C245.363 6.46267 242.731 9.78065 242.995 13.6245C243.05 14.3775 243.238 15.0847 243.506 15.7501C244.071 17.1066 244.778 18.396 245.644 19.5521L251.129 26.1261L253.652 29.1912C255.865 32.1631 258.533 35.691 258.811 39.6542C259.586 50.7698 251.336 60.39 238.069 61.3199C229.725 61.9211 223.103 59.7017 218.135 55.8741ZM320.61 55.8741L322.836 49.5161C323.217 48.4276 324.264 47.8013 325.175 48.1178C325.833 48.3505 326.241 48.9707 326.266 49.7394C326.283 49.9169 326.311 50.1497 326.45 50.3662C328.434 53.8969 332.985 56.2553 338.461 55.8702C343.177 55.538 345.035 52.4818 344.78 48.8027C344.682 47.42 343.752 46.0184 343.41 45.5467C342.825 44.7875 332.927 32.8999 332.927 32.8999C330.721 29.9213 329.276 26.3131 328.999 22.3559C328.221 11.2342 336.471 1.61129 349.741 0.684104C358.082 0.0829147 364.642 2.28616 369.614 6.111L367.414 12.3679C367.033 13.4564 365.989 14.0833 365.078 13.7668C364.416 13.534 364.009 12.9139 363.984 12.148C363.971 11.9671 363.938 11.7349 363.803 11.5184C361.79 8.02342 357.997 5.74928 352.551 6.13333C347.835 6.46267 345.202 9.78065 345.471 13.6245C345.522 14.3775 345.709 15.0847 345.975 15.7501C346.543 17.1066 347.25 18.396 348.113 19.5521L353.601 26.1261L356.127 29.1912C358.333 32.1631 361.008 35.691 361.28 39.6542C362.061 50.7698 353.811 60.39 340.541 61.3199C332.197 61.9211 325.578 59.7017 320.61 55.8741ZM294.328 8.47556L283.167 34.2212C282.195 36.4819 280.357 40.8494 280.254 43.886C280.254 46.2696 281.733 47.9665 283.668 48.4801C284.243 48.6151 284.97 48.8122 285.59 48.8122C287.086 48.8125 288.55 48.3755 289.801 47.5548C291.052 46.7341 292.037 45.5656 292.632 44.193L310.567 2.60266L331.17 2.60601C331.433 2.59492 331.696 2.64239 331.939 2.74501C332.876 3.14245 333.283 4.20807 332.911 5.14809C332.665 5.76547 332.181 6.10095 331.331 6.20478C329.794 6.44704 329.161 7.15094 328.589 8.49789L318.397 32.0632C313.077 45.7627 299.719 55.4186 284.14 55.4186C278.987 55.4186 274.132 54.2329 269.749 52.1296C265.607 49.9978 262.739 45.6857 262.739 40.7109C262.845 35.6067 264.021 30.6548 266.063 26.2779L274.151 7.54168C274.191 7.44417 274.214 7.34013 274.217 7.23467C274.232 6.57263 273.719 6.2299 273.396 6.08811C272.646 5.79784 272.171 5.17712 272.171 4.44084C272.171 3.42658 273.156 2.60601 274.371 2.60601H296.88C297.143 2.59493 297.404 2.64242 297.646 2.74501C298.582 3.14245 298.99 4.20807 298.618 5.14809C298.372 5.76547 297.888 6.10095 297.038 6.20478C295.501 6.44704 294.9 7.1314 294.328 8.47556ZM181.587 26.9009H192.425L189.472 14.1252L181.587 26.9009ZM0.382812 53.2315L20.3555 6.79871C20.3926 6.70012 20.4156 6.59674 20.4236 6.49169C20.4364 5.82687 19.9262 5.48413 19.603 5.34179C18.8539 5.05152 18.3722 4.43191 18.3722 3.69117C18.3722 2.68025 19.3608 1.86025 20.5788 1.86025H42.3092L54.7489 1.89876C58.5346 1.89876 61.8816 4.12769 63.2772 7.3999C64.0748 9.38935 64.4918 11.5412 64.4918 13.8215C64.4918 17.4074 63.3866 20.7377 61.5166 23.4964C57.5075 29.4368 50.9374 32.9971 43.8437 32.9971H28.8252L22.1808 48.6051C22.1484 48.6922 22.0937 48.8055 22.0937 48.9121C22.0937 49.2833 22.3589 49.6065 22.6754 49.7483C23.4312 50.0363 23.9057 50.6593 23.9057 51.3928C23.9057 52.4104 22.9204 53.231 21.703 53.231L0.382812 53.2315ZM31.523 26.9305L39.9474 7.35803C39.9474 7.35803 41.2916 7.32231 41.7438 7.3932C42.6676 7.53833 43.372 7.75492 44.1016 8.18139C47.4743 10.1647 47.7328 15.7953 44.6766 20.7606C42.3606 24.5302 38.9946 26.8819 34.8114 26.9109L31.523 26.9305ZM83.069 29.5691L75.2485 47.7332L93.5482 47.7466C95.0051 47.7466 95.9971 47.2459 96.8204 45.9279C97.2536 45.1816 98.0803 44.7713 98.8428 44.7713C99.8604 44.7713 100.681 45.5919 100.681 46.6062C100.68 46.8695 100.621 47.1295 100.51 47.3681L97.9541 53.241H52.3296L72.1404 7.31226C72.1627 7.21904 72.2051 6.64688 72.1951 6.54361C72.1404 5.81682 71.3036 5.43277 70.9838 5.29043C70.2313 4.99961 69.7563 4.37944 69.7563 3.63981C69.7563 2.62834 70.5992 1.8502 72.0142 1.8502H113.566L110.436 9.10187C109.958 10.2166 108.814 10.7983 107.884 10.3975C107.209 10.1033 106.827 9.42173 106.853 8.61456C106.85 8.26568 106.74 7.65835 106.123 7.40939C106.03 7.37031 105.858 7.35803 105.761 7.35133H92.6724L85.294 24.4749L96.2962 24.4621C97.5405 24.375 98.2572 24.2488 99.0036 23.0537C99.43 22.3113 100.26 21.8977 101.026 21.8977C102.037 21.8977 102.683 22.7182 102.683 23.7319C102.682 23.9955 102.623 24.2557 102.512 24.4944L99.5299 31.3135C99.0521 32.4344 97.9056 33.0127 96.975 32.6158C96.2968 32.325 96.0964 31.6401 96.1254 30.8357C96.1221 30.4868 96.0093 29.8761 95.3953 29.6277C95.3135 29.602 95.229 29.5857 95.1436 29.5792L83.069 29.5691ZM197.593 53.2192C196.376 53.2192 195.409 52.4082 195.409 51.3939C195.409 50.6571 195.884 50.0375 196.634 49.7494C196.954 49.6043 197.486 49.2582 197.455 48.5967C197.454 48.5101 197.441 48.424 197.416 48.3411L193.865 33.1427H177.736L168.404 48.2607C168.333 48.4153 168.317 48.4929 168.317 48.561C168.304 49.2297 168.821 49.5686 169.141 49.7076C169.893 49.9984 170.374 50.6118 170.378 51.352C170.384 52.3629 169.402 53.1902 168.188 53.1964L158.61 53.2187C158.343 53.2265 158.077 53.1758 157.831 53.0702C157.61 52.9765 157.408 52.8399 157.239 52.6684C157.07 52.4968 156.937 52.2936 156.847 52.0704C156.756 51.8472 156.711 51.6083 156.713 51.3675C156.715 51.1267 156.765 50.8887 156.859 50.6671C157.156 49.9599 157.796 49.6981 158.649 49.5948C159.85 49.4005 160.461 48.9456 161.023 48.1055L190.251 1.86974L208.153 1.86639C209.368 1.86639 210.35 2.70928 210.35 3.72354C210.35 4.46038 209.872 5.07999 209.122 5.37137C208.799 5.51651 208.311 5.8492 208.327 6.51458L219.201 53.2187L197.593 53.2192ZM164.66 26.7239C164.925 26.7132 165.189 26.7619 165.432 26.8663C166.362 27.2604 166.776 28.3265 166.398 29.2694C166.156 29.8867 165.671 30.2222 164.818 30.326C163.284 30.5683 162.667 31.2208 162.096 32.5611L153.261 53.0384H135.307L134.547 51.6523C129.611 53.7066 125.415 54.5014 119.681 54.5014C110.566 54.5014 103.116 47.1136 103.116 38.0008C103.116 37.4359 103.123 36.8772 103.181 36.3312C105.517 16.2676 122.511 0.587534 143.201 0.587534C153.17 0.587534 158.849 2.42571 167.186 6.48276L164.983 11.7416C164.916 11.8967 164.833 12.0449 164.738 12.1843C164.176 13.0049 163.216 13.4023 162.428 13.0372C161.44 12.5884 161.666 11.9778 161.197 10.9696C160.432 9.31287 159.417 8.78593 158.771 8.34048C155.535 6.29855 153.351 6.22152 151.141 6.22152C145.918 6.22152 141.188 8.1786 137.571 11.4062C129.747 18.338 124.288 27.6835 122.756 39.0637C122.703 39.4143 122.676 39.7685 122.676 40.1231C122.676 44.1707 125.903 47.5049 129.954 47.5049C134.919 47.5049 137.639 44.6357 139.544 40.3877L143.04 32.1832C143.083 32.0249 143.11 31.8625 143.12 31.6987C143.12 30.6297 142.245 30.3288 141.922 30.1837C141.173 29.8934 140.678 29.2922 140.678 28.5554C140.678 27.5411 141.464 26.7206 142.878 26.7206" fill="#E31F26"/>
</svg>
