<svg width="370" height="58" viewBox="0 0 370 58" fill="none" xmlns="http://www.w3.org/2000/svg">
<path d="M21.7035 29.6331C24.1303 20.5164 21.3625 10.963 14.7427 5.90055C5.72545 11.6087 0.525601 22.3421 2.40367 33.5247C3.02265 37.2213 4.36305 40.6188 6.2504 43.5957C13.3012 41.6329 19.5004 37.9162 21.7033 29.6331M33.8748 55.9421C48.7579 53.4433 58.7929 39.3524 56.2921 24.4747C54.2122 12.0908 44.1155 3.06597 32.2096 1.81917C29.8063 1.56684 27.3237 1.6352 24.8193 2.05382C21.9346 2.53678 19.1468 3.4823 16.5634 4.85389C29.6799 9.30321 36.7326 16.0654 37.2216 22.9954C37.4616 27.2732 35.4733 30.3675 32.8607 32.8898L51.4082 31.5944C51.9332 31.5582 52.0973 32.1698 51.4622 32.3521L7.22287 45.0358C11.7261 51.2387 18.7193 55.3649 26.4865 56.1769C28.9485 56.4346 31.4341 56.3557 33.8748 55.9423M32.3808 0.189985C46.9499 1.70745 58.313 14.0193 58.3184 28.9891C58.3238 44.9853 45.3586 57.9595 29.3605 57.9649C13.3626 57.9703 0.390159 45.0069 0.384767 29.0087C0.379376 13.011 13.3428 0.0368575 29.3409 0.03125C30.3656 0.03125 31.3812 0.0873247 32.3808 0.189985Z" fill="white"/>
<path d="M2.40323 33.5305C3.02221 37.2256 4.36261 40.6229 6.24996 43.5998C13.3007 41.637 19.5 37.9203 21.705 29.6372C24.1298 20.5203 21.3621 10.9669 14.7405 5.90419C5.7248 11.6128 0.525162 22.3479 2.40323 33.5305ZM56.2917 24.477C58.7924 39.3562 48.7574 53.4474 33.8743 55.9461C31.4331 56.3596 28.9469 56.4385 26.4843 56.1808C18.7205 55.3688 11.7237 51.2426 7.22243 45.0396L51.4619 32.3559C52.0969 32.172 51.9327 31.5623 51.4078 31.5983L32.8604 32.8936C35.4729 30.3713 37.4612 27.2771 37.2213 22.9992C36.7322 16.0692 29.6795 9.30707 16.5628 4.85775C19.1462 3.48614 21.9341 2.54062 24.8189 2.05768C27.3233 1.63906 29.8059 1.57048 32.2091 1.82303C44.1151 3.06962 54.2115 12.0946 56.2917 24.477Z" fill="#C70A0C"/>
<path d="M208.35 40.3625V30.838H198.8V40.3625H193.559V17.676H198.8V26.7135H208.35V17.6762H213.631V40.3625H208.35ZM95.3804 17.6762V31.8791C95.3804 33.4487 95.6112 34.8072 96.0677 35.9115C96.5207 37.0067 97.1774 37.9177 98.02 38.6177C98.8698 39.3251 99.8964 39.8464 101.067 40.1676C102.258 40.496 103.602 40.6636 105.062 40.6636C106.52 40.6636 107.851 40.496 109.017 40.1676C110.164 39.8464 111.142 39.3269 111.927 38.6251C112.71 37.925 113.325 37.014 113.755 35.9169C114.188 34.8163 114.404 33.4578 114.404 31.8791V17.6762H109.5V31.7272C109.5 33.1582 109.145 34.3146 108.445 35.1627C107.728 36.0269 106.59 36.4653 105.062 36.4653C103.559 36.4653 102.429 36.0286 101.701 35.1663C100.986 34.32 100.623 33.1636 100.623 31.7274V17.6762H95.3804ZM80.2609 40.366V21.9124H74.0977V17.6764H91.7034V19.708C91.7034 20.924 90.7165 21.9126 89.5003 21.9126H85.5039V40.3662L80.2609 40.366ZM164.513 17.6743H169.756V40.3608H164.513V17.6743ZM147.053 29.7825L147.23 30.0081L153.927 38.6376C154.779 39.7364 156.065 40.3679 157.456 40.3679H161.631L152.037 28.1641L151.896 27.9836L152.037 27.805L159.925 17.6671H154.469L147.235 27.4459L147.053 27.6823L147.052 27.2727V17.6671H141.809V40.3552H147.052V30.1867L147.053 29.7825ZM124.49 28.0595H127.546C128.647 28.0595 129.486 27.7563 130.038 27.1627C130.584 26.5746 130.862 25.8096 130.862 24.8913C130.862 23.9494 130.592 23.1754 130.059 22.5873C129.518 21.9881 128.674 21.6868 127.546 21.6868H124.49V28.0595ZM134.974 40.3589C133.421 40.3589 131.957 39.5343 131.155 38.2065L127.075 31.4712H124.49V40.3589H119.25V17.6762H128.593C130.992 17.6762 132.872 18.3023 134.179 19.5381C135.481 20.7704 136.141 22.4592 136.141 24.5557C136.141 25.62 135.858 26.6991 135.299 27.7617C134.747 28.8064 133.769 29.6617 132.389 30.3023L132.085 30.4429L138.451 40.3589H134.974ZM174.059 39.3989V35.0488C175.728 35.8177 177.878 36.5844 180.101 36.5844C182.66 36.5844 183.957 35.7075 183.957 34.0261C183.957 32.0522 182.216 31.8338 178.73 30.3346C176.358 29.2757 174.097 27.6301 174.097 23.8304C174.097 19.4083 177.471 17.3242 182.142 17.3242C184.624 17.3242 186.739 17.9087 187.924 18.3474V22.5873C186.739 22.0388 184.625 21.3801 182.512 21.3801C180.213 21.3801 179.138 22.2211 179.138 23.6824C179.138 25.2178 180.437 25.694 182.772 26.5709C185.774 28.0684 189.26 28.727 189.26 33.8438C189.26 38.266 185.738 40.6783 181.029 40.6783C178.137 40.6783 175.84 40.1658 174.059 39.3989ZM335.999 40.3608V17.6723H350.205V19.7309C350.205 20.9326 349.228 21.9085 348.028 21.9085H341.242V26.7892H348.861V30.5762H341.242V36.1259H350.205V40.3604L335.999 40.3608ZM284.167 40.3586V17.6727H286.715C288.2 17.6727 289.408 18.8816 289.408 20.3665V36.2723H297.777V40.3591L284.167 40.3586ZM251.715 40.3552V17.6833H256.958L256.956 40.3552H251.715ZM267.005 28.0558H270.062C271.162 28.0558 271.999 27.7546 272.553 27.1608C273.1 26.5709 273.378 25.8077 273.378 24.8876C273.378 23.9477 273.107 23.1717 272.573 22.5836C272.034 21.9864 271.188 21.6834 270.062 21.6834H267.006L267.005 28.0558ZM277.49 40.3552C275.936 40.3552 274.471 39.5307 273.668 38.2045L269.591 31.4695H267.005V40.3552H261.766V17.6743H271.107C273.508 17.6743 275.386 18.3004 276.694 19.5364C277.997 20.7685 278.657 22.4574 278.657 24.5538C278.657 25.6183 278.374 26.6973 277.813 27.7599C277.262 28.8027 276.283 29.6579 274.904 30.3003L274.601 30.441L280.966 40.3554L277.49 40.3552ZM233.696 32.0937L235.754 26.3598C236.211 25.0699 236.669 23.7077 236.974 22.7046H237.05C237.317 23.7437 237.775 25.0338 238.232 26.3598L240.214 32.0937H233.696ZM240.173 17.6708H234.152L225.596 40.3589H229.373C230.333 40.3589 231.179 39.7472 231.478 38.8379L232.357 36.1748H241.559L242.904 40.3589H248.584L240.173 17.6708ZM354.416 39.3989V35.051C356.083 35.8177 358.234 36.5844 360.459 36.5844C363.017 36.5844 364.314 35.7075 364.314 34.0261C364.314 32.0522 362.572 31.8338 359.088 30.3364C356.715 29.2755 354.452 27.6318 354.452 23.8304C354.452 19.4083 357.826 17.3242 362.498 17.3242C364.982 17.3242 367.095 17.9087 368.282 18.3474V22.5873C367.095 22.0405 364.982 21.3821 362.869 21.3821C360.571 21.3821 359.495 22.2228 359.495 23.6842C359.495 25.2176 360.792 25.6942 363.127 26.5709C366.131 28.0684 369.615 28.727 369.615 33.8438C369.615 38.266 366.093 40.6783 361.386 40.6783C358.494 40.6783 356.195 40.1658 354.416 39.3989ZM311.193 17.6762H314.442C315.985 17.6762 317.419 18.4718 318.235 19.7816L324.562 29.9466C325.276 31.0761 326.104 32.5681 326.595 33.6238H326.707C326.631 32.6044 326.595 31.1844 326.595 30.1649V17.6764H331.189V40.3608H325.441L317.745 28.0886C317.029 26.9609 316.277 25.6131 315.748 24.5937H315.674C315.712 25.5771 315.786 26.7426 315.786 27.8341V40.3608H311.193V17.6762ZM301.15 40.3552V17.6833H306.392V40.3552H301.15Z" fill="black"/>
</svg>
